<svg width="10" height="10" viewBox="0 0 10 10" fill="none" xmlns="http://www.w3.org/2000/svg">
<path fill-rule="evenodd" clip-rule="evenodd" d="M5.75 1C5.75 0.801088 5.67098 0.610322 5.53033 0.46967C5.38968 0.329018 5.19891 0.25 5 0.25C4.80109 0.25 4.61032 0.329018 4.46967 0.46967C4.32902 0.610322 4.25 0.801088 4.25 1V4.25H1C0.801088 4.25 0.610322 4.32902 0.46967 4.46967C0.329018 4.61032 0.25 4.80109 0.25 5C0.25 5.19891 0.329018 5.38968 0.46967 5.53033C0.610322 5.67098 0.801088 5.75 1 5.75H4.25V9C4.25 9.19891 4.32902 9.38968 4.46967 9.53033C4.61032 9.67098 4.80109 9.75 5 9.75C5.19891 9.75 5.38968 9.67098 5.53033 9.53033C5.67098 9.38968 5.75 9.19891 5.75 9V5.75H9C9.19891 5.75 9.38968 5.67098 9.53033 5.53033C9.67098 5.38968 9.75 5.19891 9.75 5C9.75 4.80109 9.67098 4.61032 9.53033 4.46967C9.38968 4.32902 9.19891 4.25 9 4.25H5.75V1Z" fill="currentColor"/>
</svg>
